#!OML:ASF F:\VICON\USERDATA\INSTALL\rory3\rory3.ASF
:FULLY-SPECIFIED
:DEGREES
576
root 2.0622 17.7414 6.69723 -5.69532 22.9121 -1.66452
lowerback 11.5235 -0.460008 -3.82207
upperback 1.53103 -1.01711 1.10666
thorax -4.77032 -0.419749 3.47404
lowerneck -0.0158944 -20.2653 -17.8435
upperneck 13.7342 -30.7526 20.8041
head 10.5332 -14.5288 5.53056
rclavicle -6.02193e-014 1.07344e-014
rhumerus -33.2185 34.9378 -100.541
rradius 88.8565
rwrist -5.01598
rhand -15.9309 4.15189
rfingers 7.12502
rthumb 10.2668 -25.5775
lclavicle -6.02193e-014 1.07344e-014
lhumerus -35.4721 -28.302 97.3485
lradius 88.4758
lwrist -7.68976
lhand -15.5905 35.5607
lfingers 7.12502
lthumb 10.5952 65.2736
rfemur 8.20535 2.92926 20.7037
rtibia 27.2286
rfoot -17.0172 4.79157
rtoes -7.16102
lfemur -15.967 1.93865 -14.3071
ltibia 22.4702
lfoot 3.07543 -4.39522
ltoes -8.38437
577
root 1.97433 17.7412 6.63975 -5.87948 22.9229 -2.21633
lowerback 11.4572 -0.409773 -3.33717
upperback 1.5572 -0.878607 1.2703
thorax -4.723 -0.360097 3.34869
lowerneck -0.0493805 -20.3584 -17.7812
upperneck 13.6336 -30.8596 20.7996
head 10.5136 -14.5761 5.492
rclavicle 1.83255e-015 9.44227e-015
rhumerus -33.1082 35.0251 -100.503
rradius 88.8494
rwrist -4.68642
rhand -15.7695 4.10213
rfingers 7.12502
rthumb 10.4225 -25.6195
lclavicle 1.83255e-015 9.44227e-015
lhumerus -35.4708 -27.8453 97.3692
lradius 88.5837
lwrist -7.4556
lhand -15.6291 35.4837
lfingers 7.12502
lthumb 10.5579 65.1985
rfemur 8.5442 2.72518 21.5324
rtibia 26.0922
rfoot -17.2928 4.09793
rtoes -7.15346
lfemur -16.1145 1.78256 -13.5153
ltibia 22.0251
lfoot 3.57543 -4.10858
ltoes -6.32445
578
root 1.89647 17.7492 6.57118 -5.97609 22.9602 -2.43031
lowerback 11.5447 -0.368849 -2.99753
upperback 1.55354 -0.782479 1.30372
thorax -4.78757 -0.316824 3.17846
lowerneck 0.0241642 -20.3842 -17.8218
upperneck 13.4992 -30.9237 21.0016
head 10.5141 -14.6066 5.5519
rclavicle -3.59055e-014 2.38542e-015
rhumerus -33.129 35.12 -100.524
rradius 88.8629
rwrist -4.36929
rhand -15.4133 4.28404
rfingers 7.12502
rthumb 10.7661 -25.4201
lclavicle -3.59055e-014 2.38542e-015
lhumerus -35.6294 -27.4397 97.4325
lradius 88.7539
lwrist -6.97102
lhand -15.889 35.0548
lfingers 7.12502
lthumb 10.3073 64.7822
rfemur 8.82588 2.50491 21.8881
rtibia 25.0137
rfoot -17.4218 3.98782
rtoes -4.09597
lfemur -16.2137 1.4688 -13.1083
ltibia 21.6181
lfoot 4.08532 -3.70068
ltoes -5.02154
579
root 1.81965 17.7499 6.50327 -6.06581 22.8883 -2.67951
lowerback 11.5427 -0.307896 -2.62219
upperback 1.57234 -0.652106 1.34305
thorax -4.78057 -0.259099 2.98687
lowerneck 0.0323847 -20.4326 -17.8343
upperneck 13.3668 -31.0022 21.1554
head 10.5153 -14.64 5.58245
rclavicle 8.19987e-016 3.18055e-015
rhumerus -33.1534 35.1982 -100.566
rradius 88.9054
rwrist -4.02141
rhand -15.3373 4.34604
rfingers 7.12502
rthumb 10.8394 -25.3542
lclavicle 8.19987e-016 3.18055e-015
lhumerus -35.7548 -27.0496 97.5378
lradius 88.8125
lwrist -6.28108
lhand -16.5233 33.4806
lfingers 7.12502
lthumb 9.69526 63.2374
rfemur 8.94637 2.49247 22.3032
rtibia 24.1036
rfoot -17.4599 4.17861
rtoes -0.847923
lfemur -16.2722 1.21767 -12.6439
ltibia 21.1755
lfoot 4.34731 -3.30823
ltoes -5.19767
580
root 1.74483 17.7416 6.43286 -6.13613 22.8659 -2.85833
lowerback 11.6531 -0.273638 -2.30118
upperback 1.54349 -0.567024 1.37047
thorax -4.88114 -0.220502 2.82277
lowerneck 0.0161595 -20.4915 -17.8358
upperneck 13.2755 -31.0811 21.2204
head 10.5155 -14.6743 5.58076
rclavicle 4.25523e-014 2.88238e-015
rhumerus -33.2364 35.3292 -100.64
rradius 89.0039
rwrist -3.82962
rhand -15.3405 4.34167
rfingers 7.12502
rthumb 10.8363 -25.3588
lclavicle 4.25523e-014 2.88238e-015
lhumerus -35.9017 -26.5832 97.5931
lradius 88.9001
lwrist -5.82348
lhand -16.8384 32.4946
lfingers 7.12502
lthumb 9.39125 62.2654
rfemur 8.97756 2.4739 22.6354
rtibia 23.3955
rfoot -17.5543 4.23143
rtoes -0.0721019
lfemur -16.309 0.714395 -12.2326
ltibia 20.7066
lfoot 4.35782 -2.52312
ltoes -5.65699
581
root 1.67549 17.7373 6.36719 -6.24101 22.7846 -3.14871
lowerback 11.6211 -0.254489 -1.85957
upperback 1.54969 -0.482812 1.41366
thorax -4.86582 -0.186889 2.60436
lowerneck 0.0520159 -20.4673 -17.9369
upperneck 13.1838 -31.0913 21.478
head 10.5495 -14.6751 5.67328
rclavicle 4.18628e-014 2.09718e-014
rhumerus -33.3335 35.5145 -100.704
rradius 89.1193
rwrist -3.58844
rhand -15.4152 4.54205
rfingers 7.12502
rthumb 10.7643 -25.1621
lclavicle 4.18628e-014 2.09718e-014
lhumerus -36.1122 -26.089 97.5851
lradius 89.1979
lwrist -5.57416
lhand -16.8834 32.5844
lfingers 7.12502
lthumb 9.34789 62.3571
rfemur 8.98899 2.45409 23.0642
rtibia 22.7436
rfoot -17.8156 4.11988
rtoes -0.0792555
lfemur -16.3469 0.183937 -11.6943
ltibia 20.3637
lfoot 3.99465 -1.55785
ltoes -5.7047
582
root 1.60498 17.731 6.29883 -6.24721 22.6911 -3.19667
lowerback 11.6074 -0.188516 -1.67469
upperback 1.53769 -0.373392 1.38445
thorax -4.87863 -0.136259 2.45197
lowerneck 0.0629935 -20.4534 -17.984
upperneck 13.1694 -31.1156 21.666
head 10.5953 -14.6784 5.73238
rclavicle 4.50558e-014 5.86415e-015
rhumerus -33.5235 35.6668 -100.762
rradius 89.2973
rwrist -3.23886
rhand -15.5915 4.94655
rfingers 7.12502
rthumb 10.5942 -24.7664
lclavicle 4.50558e-014 5.86415e-015
lhumerus -36.4607 -25.7282 97.6254
lradius 89.5793
lwrist -5.22549
lhand -17.0831 33.0779
lfingers 7.12502
lthumb 9.15514 62.8592
rfemur 8.97288 2.52154 23.2625
rtibia 22.1407
rfoot -18.0486 4.04218
rtoes -0.1036
lfemur -16.3592 -0.412535 -11.3842
ltibia 20.1171
lfoot 3.17574 -0.633691
ltoes -6.42705
583
root 1.53443 17.7208 6.22675 -6.2542 22.6626 -3.17219
lowerback 11.7544 -0.146144 -1.532
upperback 1.48426 -0.305506 1.29535
thorax -5.02132 -0.104018 2.26923
lowerneck -0.000861589 -20.5032 -17.8084
upperneck 13.2304 -31.2006 21.663
head 10.6165 -14.7014 5.68552
rclavicle -1.95057e-015 3.97569e-016
rhumerus -33.7469 35.8785 -100.926
rradius 89.5051
rwrist -2.98177
rhand -15.7848 5.01066
rfingers 7.12502
rthumb 10.4078 -24.7117
lclavicle -1.95057e-015 3.97569e-016
lhumerus -36.8603 -25.4267 97.664
lradius 89.9414
lwrist -4.75993
lhand -17.0959 32.8708
lfingers 7.12502
lthumb 9.14277 62.6526
rfemur 8.95327 2.52914 23.3668
rtibia 21.6462
rfoot -18.3339 4.11491
rtoes -0.0761807
lfemur -16.3452 -1.0292 -11.1613
ltibia 19.9052
lfoot 2.07043 0.0984865
ltoes -6.89594
584
root 1.46632 17.7162 6.15423 -6.25727 22.6232 -3.21042
lowerback 11.93 -0.161372 -1.31392
upperback 1.4078 -0.301631 1.2509
thorax -5.20088 -0.10425 2.10108
lowerneck 0.0834671 -20.4827 -17.7059
upperneck 13.1188 -31.1863 21.7742
head 10.5642 -14.6971 5.72535
rclavicle -4.50868e-014 1.98785e-016
rhumerus -33.9291 36.1835 -101.129
rradius 89.5859
rwrist -2.53198
rhand -16.0895 5.09394
rfingers 7.12502
rthumb 10.1138 -24.643
lclavicle -4.50868e-014 1.98785e-016
lhumerus -37.1997 -24.9943 97.6727
lradius 90.2137
lwrist -4.25633
lhand -16.8351 31.8906
lfingers 7.12502
lthumb 9.39446 61.6613
rfemur 8.80468 2.44714 23.5063
rtibia 21.3022
rfoot -18.6086 4.24821
rtoes 0.0440742
lfemur -16.3546 -1.58819 -10.8839
ltibia 19.6729
lfoot 0.959315 0.780151
ltoes -5.66697
585
root 1.39776 17.7096 6.08501 -6.21285 22.5859 -3.0889
lowerback 11.9957 -0.174816 -1.35341
upperback 1.40828 -0.325992 1.23587
thorax -5.23563 -0.115186 2.1123
lowerneck 0.0212795 -20.4389 -17.7296
upperneck 13.0768 -31.1437 21.9283
head 10.5876 -14.6667 5.78068
rclavicle 5.0833e-014 -6.95746e-015
rhumerus -33.987 36.5778 -101.15
rradius 89.6105
rwrist -1.99633
rhand -16.3199 5.44024
rfingers 7.12502
rthumb 9.8915 -24.3074
lclavicle 5.0833e-014 -6.95746e-015
lhumerus -37.4145 -24.5562 97.6907
lradius 90.5425
lwrist -3.65137
lhand -16.5402 31.9835
lfingers 7.12502
lthumb 9.67898 61.7411
rfemur 8.64548 2.52904 23.5278
rtibia 21.0503
rfoot -18.8269 4.21874
rtoes 0.248534
lfemur -16.3406 -1.62569 -10.8508
ltibia 19.4489
lfoot -0.177946 0.92967
ltoes -5.33471
